<?xml version="1.0" standalone="no"?>
<!DOCTYPE svg PUBLIC "-//W3C//DTD SVG 20010904//EN"
 "http://www.w3.org/TR/2001/REC-SVG-20010904/DTD/svg10.dtd">
<svg version="1.0" xmlns="http://www.w3.org/2000/svg"
 width="2064.000000pt" height="397.000000pt" viewBox="0 0 2064.000000 397.000000"
 preserveAspectRatio="xMidYMid meet">
<metadata>
Created by potrace 1.13, written by Peter Selinger 2001-2015
</metadata>
<g transform="translate(0.000000,397.000000) scale(0.100000,-0.100000)"
fill="#000000" stroke="none">
<path d="M0 3600 l0 -370 980 0 980 0 0 -383 0 -383 223 -414 c122 -227 227
-415 232 -417 6 -1 110 184 233 412 l222 414 0 386 0 385 985 0 985 0 0 370 0
370 -2420 0 -2420 0 0 -370z"/>
<path d="M10623 3239 c-174 -30 -266 -112 -298 -265 -21 -97 -20 -492 0 -589
28 -130 98 -207 228 -247 70 -22 83 -23 512 -23 438 0 440 0 509 24 138 48
186 129 186 318 l0 103 -170 0 -169 0 -6 -37 c-8 -55 -27 -86 -60 -103 -39
-19 -460 -28 -550 -11 -114 21 -140 77 -134 296 7 235 38 255 398 255 108 -1
216 -5 241 -9 55 -11 90 -48 90 -97 l0 -34 175 0 175 0 0 62 c0 160 -44 261
-132 306 -99 51 -135 55 -553 58 -214 1 -413 -2 -442 -7z"/>
<path d="M14943 3239 c-156 -27 -246 -97 -285 -220 -22 -70 -23 -90 -23 -339
0 -249 1 -269 23 -339 41 -129 131 -195 301 -222 44 -6 218 -9 473 -7 447 4
465 7 550 71 76 58 108 148 108 305 l0 72 -174 0 -174 0 -7 -47 c-4 -31 -16
-55 -34 -74 -36 -35 -107 -42 -387 -38 -234 4 -258 11 -299 79 -18 31 -20 52
-20 190 0 278 25 295 430 288 273 -4 295 -12 295 -104 l0 -34 176 0 177 0 -5
104 c-6 133 -37 203 -110 253 -90 60 -139 65 -573 69 -214 1 -413 -2 -442 -7z"/>
<path d="M6860 3095 l0 -145 235 0 235 0 0 -415 0 -415 175 0 175 0 0 415 0
415 240 0 240 0 0 145 0 145 -650 0 -650 0 0 -145z"/>
<path d="M8901 3203 c-10 -21 -146 -272 -300 -557 -155 -285 -281 -520 -281
-522 0 -2 88 -4 195 -4 l195 0 50 100 50 100 339 0 338 0 53 -100 54 -100 193
0 c106 0 193 3 193 8 0 4 -136 255 -303 557 l-302 550 -227 3 -227 2 -20 -37z
m346 -430 c54 -102 100 -190 101 -195 2 -4 -87 -8 -197 -8 -111 0 -201 3 -201
6 0 6 193 383 197 384 1 0 46 -84 100 -187z"/>
<path d="M12120 3095 l0 -145 240 0 240 0 0 -415 0 -415 175 0 175 0 0 415 0
415 240 0 240 0 0 145 0 145 -655 0 -655 0 0 -145z"/>
<path d="M13830 2680 l0 -560 175 0 175 0 0 560 0 560 -175 0 -175 0 0 -560z"/>
<path d="M16723 2697 c-161 -298 -295 -550 -299 -559 -6 -17 7 -18 187 -18
l194 0 50 98 50 97 340 0 340 0 51 -95 52 -95 196 -3 197 -2 -12 22 c-6 13
-144 265 -306 561 l-295 537 -227 0 -226 -1 -292 -542z m626 -125 c-54 -1
-145 -1 -203 0 l-104 3 100 193 100 194 103 -194 102 -193 -98 -3z"/>
<path d="M18430 2680 l0 -560 555 0 555 0 0 150 0 150 -380 0 -380 0 0 410 0
410 -175 0 -175 0 0 -560z"/>
<path d="M0 1483 l0 -1483 445 0 445 0 0 690 0 689 -426 763 c-235 420 -435
777 -445 793 -18 29 -19 -1 -19 -1452z"/>
<path d="M420 2956 c0 -2 371 -667 823 -1477 l824 -1474 349 -2 349 -3 823
1474 c452 810 822 1476 822 1480 0 3 -220 6 -488 6 l-488 0 -508 -945 c-280
-520 -510 -944 -511 -943 -1 2 -231 427 -510 946 l-507 942 -489 0 c-269 0
-489 -2 -489 -4z"/>
<path d="M4388 2176 l-438 -784 0 -696 0 -696 445 0 445 0 0 1480 c0 814 -3
1480 -7 1480 -5 0 -205 -353 -445 -784z"/>
<path d="M5760 1845 l0 -55 7440 0 7440 0 0 55 0 55 -7440 0 -7440 0 0 -55z"/>
<path d="M11850 1527 c-74 -17 -114 -42 -142 -91 -20 -37 -23 -53 -23 -156 1
-216 22 -228 421 -240 293 -9 317 -14 322 -67 6 -58 -15 -63 -249 -63 -225 0
-233 2 -241 60 l-3 25 -129 3 -129 3 5 -73 c5 -82 28 -139 64 -163 62 -40 131
-47 463 -43 271 4 323 7 363 22 93 35 123 102 116 256 -5 108 -22 150 -71 181
-58 35 -100 41 -367 48 -290 7 -310 11 -310 61 0 54 23 60 227 60 208 0 233
-5 233 -50 l0 -30 131 0 132 0 -6 69 c-9 106 -36 146 -117 178 -38 14 -89 17
-340 20 -207 1 -311 -2 -350 -10z"/>
<path d="M8690 1130 l0 -400 125 0 125 0 2 272 3 272 150 -269 151 -270 99 -3
100 -2 150 270 150 270 3 -270 2 -270 125 0 125 0 0 400 0 400 -192 0 -193 0
-134 -250 -135 -249 -29 52 c-15 29 -76 141 -134 250 l-105 197 -194 0 -194 0
0 -400z"/>
<path d="M10646 1468 c-58 -106 -352 -650 -375 -695 l-21 -43 143 0 143 0 34
70 34 70 242 0 242 0 36 -70 37 -70 141 0 c129 0 140 1 133 17 -3 10 -101 190
-217 400 l-210 383 -163 0 -164 0 -35 -62z m273 -280 l72 -138 -146 0 -146 0
73 139 c40 77 73 138 74 138 0 -1 33 -64 73 -139z"/>
<path d="M12950 1425 l0 -105 170 0 170 0 0 -295 0 -295 125 0 125 0 0 295 0
295 175 0 175 0 0 105 0 105 -470 0 -470 0 0 -105z"/>
<path d="M14160 1130 l0 -400 445 0 445 0 0 100 0 100 -320 0 -320 0 0 60 0
60 295 0 295 0 0 85 0 85 -295 0 -295 0 0 60 0 60 310 0 310 0 0 95 0 95 -435
0 -435 0 0 -400z"/>
<path d="M15360 1130 l0 -400 125 0 125 0 0 100 0 100 211 0 c123 0 218 -4
229 -10 24 -13 40 -69 40 -137 l0 -53 125 0 125 0 0 98 c0 124 -20 174 -79
201 l-40 17 34 13 c19 7 45 26 57 44 21 29 23 43 23 162 0 157 -12 191 -84
233 l-46 27 -422 3 -423 3 0 -401z m715 170 c13 -15 19 -36 19 -71 0 -84 1
-84 -259 -87 l-225 -3 0 90 0 91 223 0 c213 0 225 -1 242 -20z"/>
<path d="M16580 1524 c0 -3 99 -122 220 -264 l220 -259 0 -135 0 -136 125 0
125 0 0 138 0 137 220 259 c121 142 220 260 220 262 0 2 -69 4 -153 4 l-153 0
-130 -159 -130 -158 -130 158 -129 159 -152 0 c-84 0 -153 -3 -153 -6z"/>
</g>
</svg>
